<?xml version="1.0" encoding="utf-8"?>
<!-- Generator: Adobe Illustrator 16.0.4, SVG Export Plug-In . SVG Version: 6.00 Build 0)  -->
<!DOCTYPE svg PUBLIC "-//W3C//DTD SVG 1.1//EN" "http://www.w3.org/Graphics/SVG/1.1/DTD/svg11.dtd">
<svg version="1.1" id="Layer_1" xmlns="http://www.w3.org/2000/svg" xmlns:xlink="http://www.w3.org/1999/xlink" x="0px" y="0px"
	 width="475.303px" height="96.587px" viewBox="0 0 475.303 96.587" enable-background="new 0 0 475.303 96.587"
	 xml:space="preserve">
<g>
	<path fill="#0072BC" d="M130.796,0.161c-2.439,0.471-18.557,6.567-20.077,7.128c-1.518,0.562-5.544,0.969-6.095,1.032
		c-0.551,0.064-4.691-0.281-5.814-0.281c-1.124,0-10.572-1.959-18.856,8.35c-2.326,2.556-3.887,4.033-4.997,4.907
		c-7.065,0.597-13.527-2.239-13.527-2.239s-12.772-3.53-20.436-5.189c-7.666-1.661-21.609-6.688-23.143-7.716
		C16.319,5.125,15.16,5.323,15.6,5.77c0.441,0.453,7.125,7.53,7.125,7.53c-1.279,0.252-17.171-3.166-17.171-3.166
		S0.909,8.923,0.13,9.746c-0.782,0.822,2.229,2.16,2.229,2.16c0.46,1.251,4.649,2.903,4.649,2.903s-0.811,1.207-0.674,2.246
		c0.138,1.04,6.321,2.388,6.321,2.388s-0.612,1.18,0.355,2.406c0.85,1.08,6.07,1.75,7.307,1.895
		c-0.117,0.123-0.176,0.54,0.067,1.751c0.479,2.351,7.748,2.286,7.748,2.286c-0.299,0.293-0.147,2.431,0.487,3.743
		c0.639,1.312,6.617,0.108,6.617,0.108s-0.806,2.896,0.281,4.064c1.083,1.171,6.722,1.233,6.722,1.233
		c-1.095,2.008,1.653,2.958,1.653,2.958c0.918,0.591,1.636,0.843,2.193,0.909c-1.618,1.792-3.1,3.699-4.312,5.703
		c0,0-3.471,5.254-3.284,5.814c0.188,0.565,0.655,0.751,0.655,0.751s-0.655,2.722-0.655,3.378s-0.748,4.599-0.748,4.599l-0.753,6.19
		c0,0-1.407,6.379-1.407,6.657c0,0.283,0,1.222,0,1.222s-1.315,3.093-1.594,3.847c-0.284,0.747-1.784,2.249-2.252,4.97
		c-0.471,2.723-1.315,4.316-1.315,4.599c0,0.28,0.562,1.311,1.032,0.654c0.47-0.654,0.283,0.377,0.283,0.846
		c0,0.47,2.815,3.471,5.346,0.748c2.531-2.718,7.785-12.57,7.785-12.57s-1.312,15.479-0.375,15.855s3.005,2.907,5.813-1.97
		c0,0,1.409,4.5,5.07-1.315c0,0,3.562-1.5,5.253-8.16c0,0,2.346-7.597,0.937-21.293c0,0,1.409-1.782,2.911-2.063
		c1.499-0.281,9.939-4.972,9.939-4.972s23.152-9.627,25.798-24.391c0,0,2.723-8.535,3.848-10.974c1.125-2.44,3.19-6.756,6.191-8.351
		c3.192-1.81,22.987-9.679,23.073-9.94C133.412,0.37,133.233-0.308,130.796,0.161z"/>
</g>
<g>
	<path d="M203.011,0.23c14.514,0,26.598,4.596,36.252,13.784c9.653,9.189,14.481,20.71,14.481,34.562s-4.872,25.316-14.616,34.395
		c-9.743,9.077-22.028,13.616-36.856,13.616c-14.156,0-25.949-4.539-35.379-13.616c-9.431-9.078-14.145-20.452-14.145-34.125
		c0-14.03,4.747-25.642,14.245-34.831C176.49,4.826,188.496,0.23,203.011,0.23z M203.548,13.006
		c-10.749,0-19.582,3.362-26.502,10.086c-6.92,6.725-10.379,15.31-10.379,25.754c0,10.131,3.47,18.559,10.412,25.282
		c6.942,6.725,15.631,10.086,26.065,10.086c10.479,0,19.224-3.429,26.233-10.287c7.009-6.859,10.514-15.398,10.514-25.619
		c0-9.952-3.505-18.323-10.514-25.114C222.368,16.401,213.759,13.006,203.548,13.006z"/>
	<path d="M270.688,95.511V1.575h23.534c9.503,0,17.046,2.354,22.627,7.061c5.581,4.706,8.371,11.072,8.371,19.096
		c0,5.47-1.368,10.199-4.102,14.188c-2.735,3.99-6.657,6.971-11.768,8.942c3.003,1.974,5.939,4.663,8.809,8.069
		c2.868,3.407,6.903,9.347,12.104,17.819c3.271,5.335,5.895,9.346,7.867,12.036l4.976,6.724h-16.003l-4.097-6.189
		c-0.135-0.224-0.403-0.605-0.806-1.144l-2.619-3.701l-4.164-6.861l-4.499-7.334c-2.775-3.856-5.319-6.927-7.63-9.208
		c-2.312-2.282-4.399-3.928-6.262-4.935c-1.862-1.006-4.992-1.511-9.391-1.511h-3.5v40.883H270.688z M288.171,13.006h-4.034v29.653
		h5.11c6.813,0,11.486-0.582,14.02-1.748c2.532-1.165,4.505-2.925,5.917-5.278s2.118-5.031,2.118-8.035
		c0-2.959-0.785-5.637-2.354-8.036c-1.569-2.397-3.777-4.09-6.623-5.076C299.478,13.5,294.761,13.006,288.171,13.006z"/>
	<path d="M353.596,1.575h13.448v93.936h-13.448V1.575z"/>
	<path d="M462.526,1.575h12.776v93.936h-11.565l-62.804-72.345v72.345h-12.641V1.575h10.893l63.341,72.96V1.575z"/>
</g>
</svg>
